<svg width="19" height="19" viewBox="0 0 19 19" fill="none" xmlns="http://www.w3.org/2000/svg">
<g clip-path="url(#clip0_2620_17534)">
<path d="M3.21845 17.1853L2.2989 12.6582L2.47573 12.3753L2.82941 12.0216L3.14772 11.7033L3.46603 11.2082L3.85507 10.3947L3.99654 9.97029L4.13801 9.51051L4.20875 9.0861V8.16654H4.98684V8.55559L4.9161 9.40441L4.84537 9.89956L4.66853 10.3947L4.49169 10.8545L4.27948 11.2082L4.13801 11.6326L3.8197 11.9509L3.39529 12.4814L4.38559 16.0889H5.72956L5.23441 13.118L5.0222 11.7033L5.09294 11.6326L5.23441 11.2789L5.30514 10.9606L5.51735 10.6423H5.58809L5.87103 10.7837L6.18934 10.8898L6.64911 10.9606L7.35647 10.996H8.24066L8.87728 17.1853H10.292L10.4335 11.4557L10.4688 11.1728L10.5749 10.996L10.681 10.8191L10.8579 10.6423L10.9993 10.4654L11.1408 10.2886L11.2823 9.89956L11.3884 9.54588V8.94463L12.0957 8.90926L12.1311 9.51051L11.9896 10.0057L11.9189 10.2886L11.7774 10.6776L11.5652 10.9606L11.1054 11.5265L11.0347 14.462L11.6006 16.0889H12.9092L12.1665 10.2179L12.414 10.1825L13.1921 10.041L14.0409 9.89956L14.6776 9.61661L15.5264 8.90926L16.0215 8.30801L16.4106 7.67139L16.4813 7.42382L16.5874 7.28235L16.7289 6.89331L16.7996 6.61037L16.9411 6.29206L17.0118 5.83228V4.48831L17.0826 4.31147L17.224 4.09926L17.4009 3.95779C17.4834 3.92243 17.6555 3.84462 17.6838 3.81632C17.7121 3.78803 17.8135 3.7338 17.8607 3.71022L18.0729 3.39191V2.47235L17.9668 2.26015L17.8607 2.04794L17.6131 1.83573L17.4362 1.72963L17.1887 1.6589L16.6228 1.62353L16.5167 1.44669L16.4106 1.30522L16.1984 1.12838L16.0569 1.02228L15.9154 0.951544L15.8093 0.916176H15.3496L14.9959 0.986912L14.7129 1.12838L14.43 1.34059L14.2885 1.48206L14.0763 1.69426L13.7934 2.29551V4.13463L13.7226 4.34684L13.4751 4.55904H13.2629L13.086 4.48831L12.9092 4.31147L12.7323 4.13463L12.4494 3.81632L12.2372 3.46265L12.0957 3.14434L11.7421 2.40162L11.5652 1.94184L11.3176 1.48206L11.2469 1.37596L11.1054 1.23449L11.0347 1.09301L10.8225 0.951544L10.7518 0.880809L10.6103 0.810073L10.4688 0.739338L10.3627 0.668603L10.1859 0.597868L10.0444 0.5625H9.65536L9.47853 0.597868L9.33705 0.633235L9.19558 0.703971L9.01875 0.810073L8.84191 0.951544L8.6297 1.16375L8.45286 1.41132L8.16992 1.94184L7.88698 2.54309L7.78088 3.03823L7.46257 3.0736L7.39183 2.75529L7.215 2.33088L7.03816 1.90647L6.86132 1.55279L6.61375 1.19912L6.36617 0.951544L6.15397 0.774706L6.0125 0.703971L5.87103 0.597868L5.69419 0.5625H5.26978L5.0222 0.597868L4.84537 0.668603L4.59779 0.810073L4.20875 1.12838L3.96117 1.44669L3.74897 1.765L3.5014 2.40162L3.35992 2.93213L3.25382 3.63948L2.65257 4.0639L2.05132 4.52367L1.59154 5.01882L1.13176 5.5847L0.848823 6.04448L0.671985 6.575L0.424412 7.17625V8.48485L0.671985 9.43978V10.2886L0.424412 11.2789L0 12.1277L1.83912 17.1853H3.21845Z" fill="black"/>
</g>
<defs>
<clipPath id="clip0_2620_17534">
<rect width="18.0729" height="18.0729" fill="white"/>
</clipPath>
</defs>
</svg>
