<svg width="19" height="19" viewBox="0 0 19 19" fill="none" xmlns="http://www.w3.org/2000/svg">
<path d="M9.5 0C9.93723 0 10.2917 0.354441 10.2917 0.791667C10.2917 1.22889 9.93723 1.58333 9.5 1.58333C5.12775 1.58333 1.58333 5.12775 1.58333 9.5C1.58333 13.8723 5.12775 17.4167 9.5 17.4167C11.4966 17.4167 13.3189 16.6786 14.7118 15.4592C15.0408 15.1712 15.541 15.2045 15.829 15.5335C16.1169 15.8625 16.0837 16.3626 15.7547 16.6506C14.0842 18.1129 11.8947 19 9.5 19C4.25329 19 0 14.7467 0 9.5C0 4.25329 4.25329 0 9.5 0Z" fill="black"/>
<path d="M10.2916 3.95833C10.2916 3.52111 9.93721 3.16667 9.49998 3.16667C9.06275 3.16667 8.70831 3.52111 8.70831 3.95833V9.5C8.70831 9.70996 8.79172 9.91133 8.94019 10.0598L11.711 12.8306C12.0202 13.1398 12.5214 13.1398 12.8306 12.8306C13.1398 12.5215 13.1398 12.0202 12.8306 11.711L10.2916 9.17208V3.95833Z" fill="black"/>
<path d="M17.4445 13.1687C17.0659 12.9501 16.5817 13.0798 16.3631 13.4585C16.1445 13.8371 16.2742 14.3213 16.6529 14.5399C17.0315 14.7585 17.5157 14.6288 17.7343 14.2501C17.9529 13.8715 17.8232 13.3873 17.4445 13.1687Z" fill="black"/>
<path d="M17.3032 10.8745C17.3792 10.444 17.7898 10.1564 18.2203 10.2324C18.6509 10.3083 18.9384 10.7189 18.8625 11.1495C18.7866 11.5801 18.376 11.8676 17.9454 11.7916C17.5148 11.7157 17.2273 11.3051 17.3032 10.8745Z" fill="black"/>
<path d="M17.9453 7.20806C17.5147 7.28398 17.2272 7.69458 17.3031 8.12517C17.3791 8.55575 17.7897 8.84326 18.2202 8.76733C18.6508 8.69141 18.9383 8.28081 18.8624 7.85022C18.7865 7.41964 18.3759 7.13213 17.9453 7.20806Z" fill="black"/>
<path d="M16.3627 5.54181C16.1441 5.16317 16.2738 4.67899 16.6525 4.46038C17.0311 4.24176 17.5153 4.3715 17.7339 4.75015C17.9525 5.1288 17.8228 5.61297 17.4441 5.83158C17.0655 6.0502 16.5813 5.92046 16.3627 5.54181Z" fill="black"/>
<path d="M14.4976 2.32011C14.2166 2.65504 14.2603 3.15439 14.5952 3.43543C14.9301 3.71648 15.4295 3.67279 15.7105 3.33786C15.9916 3.00292 15.9479 2.50357 15.6129 2.22253C15.278 1.94149 14.7787 1.98518 14.4976 2.32011Z" fill="black"/>
<path d="M12.2145 2.06093C11.8037 1.91139 11.5918 1.4571 11.7414 1.04624C11.8909 0.635386 12.3452 0.423546 12.756 0.573086C13.1669 0.722626 13.3787 1.17692 13.2292 1.58777C13.0797 1.99863 12.6254 2.21047 12.2145 2.06093Z" fill="black"/>
</svg>
