<svg width="19" height="20" viewBox="0 0 19 20" fill="none" xmlns="http://www.w3.org/2000/svg">
<path d="M12.8529 12.0576C13.1408 12.0096 13.475 12.4375 13.475 12.4375C13.4877 12.459 14.4934 14.1633 15.306 15.1318C16.2262 16.2285 17.7592 17.5156 17.7592 17.5156C17.7629 17.5198 18.0696 17.8628 18.0697 18.2412C18.0697 18.8199 17.4996 19.0633 17.4828 19.0703H0.58826C0.575969 19.0679 0.0355021 18.9605 0.00134624 18.4141C-0.017673 18.1095 0.171066 17.6617 0.174198 17.6543C0.174198 17.6543 1.31443 15.374 1.62537 15.374C1.93837 15.3743 4.38904 15.6504 4.38904 15.6504C4.40142 15.6369 5.8753 14.0257 6.28846 13.75C6.48448 13.6193 6.57145 13.6465 6.80701 13.6465C7.91244 13.6465 9.46682 13.7797 9.84705 13.5771C10.8835 13.0244 10.9878 12.9553 11.7133 12.4717L11.9564 12.3193C12.1822 12.1931 12.3867 12.1353 12.8529 12.0576ZM5.52869 3.7998C6.04691 3.7998 6.358 3.83459 6.97986 3.86914C7.44735 3.89515 7.79497 4.43434 8.08533 4.80176C8.44037 5.25096 8.6726 5.83898 8.91443 6.01172C9.19008 6.20848 9.67592 6.17737 10.2201 6.23242L10.2015 6.00586C10.1853 5.8092 10.3311 5.63628 10.5277 5.61914C10.7248 5.60213 10.8982 5.74818 10.9154 5.94531L10.9564 6.41992C11.1356 6.53035 11.2608 6.70154 11.264 6.94434C11.267 7.16988 11.1838 7.4112 11.0531 7.5293L11.4437 12L10.7308 12.4375L10.3383 7.66699C9.93961 7.68644 9.63123 7.62877 8.94861 7.53125C8.67336 7.49185 8.31777 7.37314 8.08533 7.2207C7.79299 7.02894 7.46962 6.57345 7.46326 6.56445L6.77283 8.94824C6.79827 8.95719 8.05488 9.39931 8.43103 9.63867C8.68852 9.80253 8.82022 9.93373 8.98377 10.1914C9.17354 10.4904 9.26014 11.0557 9.26014 11.0557L9.5365 13.0244H7.77478C7.77404 13.0054 7.70655 11.3266 7.39392 11.0557C6.87573 10.6067 6.25428 10.5713 6.25428 10.5713L5.2865 13.8887L4.25037 14.9248H3.07557L4.59607 9.9502C4.59607 9.9502 4.17863 9.68563 4.00818 9.43164C3.76381 9.06724 3.76692 8.33665 3.76697 8.32617L4.25037 6.11523C4.24172 6.11814 3.9388 6.22046 3.83631 6.35645C3.34497 7.01131 2.86923 8.18717 2.73084 8.32617C2.59268 8.46438 2.24697 8.63668 1.8324 8.36035C1.30254 8.00713 1.55148 7.40444 1.55603 7.39355C1.55603 7.39355 2.09755 6.18442 2.59217 5.5625C2.67816 5.45439 3.11004 5.00981 3.35193 4.83691C3.59376 4.66418 4.89821 3.79988 5.52869 3.7998ZM6.42713 0C7.38111 4.47097e-05 8.15467 0.773549 8.15467 1.72754C8.15459 2.68147 7.38106 3.45503 6.42713 3.45508C5.47316 3.45508 4.69966 2.68149 4.69959 1.72754C4.69959 0.773521 5.47311 0 6.42713 0Z" fill="black"/>
</svg>
