<svg width="17" height="19" viewBox="0 0 17 19" fill="none" xmlns="http://www.w3.org/2000/svg">
<path d="M0.977579 7.75261H10.0226L11.4408 5.77074L10.1802 4.45921H11.2832C11.1571 3.96374 10.905 2.932 10.905 2.76879C10.905 2.56477 11.0015 1.69271 11.7559 0.96179C12.4178 0.320597 13.4263 0.136011 14.1826 0C14.5293 0 14.7499 0.0582903 14.7499 0.466323C14.7499 0.676168 14.4768 0.767489 14.3402 0.786919C13.9515 0.84521 13.0418 1.06671 12.5123 1.4864C11.9829 1.90609 11.8505 2.5162 11.8505 2.76879L12.2287 2.65221H14.3402C14.4453 2.74936 14.6554 2.76879 14.6554 3.06024C14.6554 3.26426 14.5083 3.33226 14.4348 3.40998H12.3547C12.1341 3.40998 11.945 3.59645 11.945 3.84716C11.945 4.13861 12.1656 4.30377 12.3547 4.45921H13.5838C14.3192 4.84781 15.8802 5.56407 16.0736 5.68331C16.3572 5.85818 16.3313 6.13767 16.2312 6.35364C16.1366 6.55766 15.8635 6.74225 15.6954 6.81997H13.9936L11.8505 11.6289L10.5583 12.7073V17.5162C10.4638 17.7203 10.1486 18.07 9.61287 18.07C9.17165 18.07 8.93003 17.7397 8.79347 17.5745V12.3867H5.16916L4.38127 13.5234L6.74495 17.0499C6.73444 17.2831 6.80798 17.6911 6.33524 17.9826C6.03269 18.1691 5.43179 18.002 5.16916 17.8951L2.74246 14.2811V12.9113L1.76547 14.0771V17.4288C1.63941 17.662 1.35577 18.07 0.851516 18.07C0.410297 18.07 0.0846349 17.6134 0.000593145 17.4288V13.8731L0.725454 12.7073V11.3375L0.000593145 12.2993V8.68526C0.000600152 8.53953 -0.0246194 8.24808 0.252719 8.01492C0.530056 7.78176 0.925053 7.75261 0.977579 7.75261Z" fill="black"/>
</svg>
