<svg width="19" height="20" viewBox="0 0 19 20" fill="none" xmlns="http://www.w3.org/2000/svg">
<path d="M7.62731 0H10.3791L11.2258 1.09366C11.2258 1.09366 11.4375 1.12894 11.5433 1.16422C11.6492 1.1995 14.0834 2.08148 14.0834 2.08148C14.0834 2.08148 14.6833 2.25788 14.8243 2.43428C15.0176 2.67613 15.2477 3.35154 15.2477 3.35154L17.2586 9.66655C17.2586 9.66655 17.7676 11.1105 17.8936 11.995C17.981 12.6088 18.07 13.4062 18.07 13.4062C18.07 13.4062 18.07 14.1967 17.9994 14.3234C17.9187 14.4684 17.7525 14.6762 17.7525 14.6762L17.6114 18.0278L15.5652 17.6397L15.2477 15.3465C15.2477 15.3465 15.0642 15.3955 14.9654 15.3465C14.849 15.2888 14.7185 14.9232 14.7185 14.9232L14.5421 14.147L14.3304 13.1945C14.3304 13.1945 14.2921 12.9482 14.2245 12.8064C14.0863 12.516 13.6248 12.2419 13.6248 12.2419V14.0412L13.7659 16.0521L14.0129 18.2747L14.2245 19.4037H3.7113V18.3806L3.99353 16.9341L4.24049 15.3465L4.48744 14.147V13.1945L4.41688 12.2419C4.41688 12.2419 3.8321 12.602 3.7113 12.9828C3.62798 13.2455 3.5349 13.6531 3.5349 13.6531L3.39378 14.6762C3.39378 14.6762 3.35849 14.9383 3.25266 15.0996C3.13314 15.2817 2.79403 15.3465 2.79403 15.3465L2.47652 17.6397L0.359755 18.0278V14.6762C0.359755 14.6762 0.215749 14.4915 0.148079 14.3587C-0.0474701 13.975 0.00696121 13.265 0.00696121 13.265C0.00696121 13.265 0.108994 12.2688 0.218636 11.6422C0.395854 10.6293 1.03006 9.17264 1.03006 9.17264L3.18211 2.61067C3.18211 2.61067 3.24044 2.47306 3.32322 2.399C3.3921 2.33737 3.5349 2.25788 3.5349 2.25788L6.957 1.09366L7.62731 0Z" fill="black"/>
<path d="M5.37027 13.8641C5.0238 13.7905 4.52356 13.6172 4.52356 13.6172L4.48828 14.2169C4.48828 14.2169 4.69668 14.3582 4.84108 14.4286C5.08779 14.549 5.24369 14.5795 5.51138 14.6403C5.87637 14.7232 6.09105 14.7137 6.46393 14.7461C6.97252 14.7903 7.25903 14.8 7.76926 14.8167C8.55416 14.8424 8.99529 14.8424 9.78019 14.8167C10.2904 14.8 10.6504 14.7696 11.0855 14.7461C11.5206 14.7226 12.2497 14.6403 12.4261 14.6403C12.6025 14.6403 12.9553 14.605 13.167 14.5697C13.3787 14.5345 13.6609 14.4992 13.6609 14.4992L13.6256 14.0053C13.6256 14.0053 12.5755 14.1837 11.897 14.2522C11.1556 14.3271 10.737 14.3623 9.99186 14.3581C9.31552 14.3542 8.93849 14.325 8.26317 14.2875C7.62815 14.2522 7.21497 14.2104 6.56976 14.1111C6.11113 14.0405 5.83553 13.9631 5.37027 13.8641Z" fill="#CBCBCB"/>
<path d="M17.7875 14.6056L15.2827 15.417L15.3885 16.2637L17.7169 15.5229L17.7875 14.6056Z" fill="#CBCBCB"/>
<path d="M17.6464 16.9693L15.4591 16.7224V16.7576L15.5649 17.6396L17.6111 18.0277L17.6464 16.9693Z" fill="#CBCBCB"/>
<path d="M2.68794 16.2284L2.79378 15.3465L0.359498 14.5814V15.4523L2.68794 16.2284Z" fill="#CBCBCB"/>
<path d="M2.61725 16.7188L0.359375 16.9304V18.0241L2.47614 17.6007L2.61725 16.7188Z" fill="#CBCBCB"/>
<path d="M8.08679 0.744141C8.15735 0.849979 8.26342 0.920775 8.2987 0.956055C8.35516 1.01222 8.687 1.23896 8.86316 1.37988C9.01897 1.50454 9.25077 1.697 9.25085 1.80273C9.25085 1.86966 9.33762 2.47012 9.33972 2.94531H9.3407C9.37141 2.61088 9.42761 2.21628 9.42761 2.15527C9.42772 2.07081 9.47441 2.00303 9.49792 1.97949L10.6971 0.391602L10.8387 0.603516C10.5214 1.03838 9.8303 1.9712 9.74499 2.08496C9.66032 2.19785 9.6737 2.2616 9.6737 2.29688V2.89648C9.8449 2.85497 10.0317 2.78777 10.2382 2.68457C11.0282 2.28953 11.4496 1.49738 11.5438 1.16797L12.1434 1.37988L11.579 2.29688L11.0145 2.9668C10.8734 3.10791 10.6268 3.24963 10.3446 3.35547C10.2734 3.38217 10.1642 3.40793 10.037 3.43262C10.0534 3.85778 10.0772 4.60729 10.0272 4.66016C9.95672 4.73065 6.50552 4.83662 6.35827 4.97754C6.21716 5.11866 6.18189 6.3187 6.07605 7.05957C5.97018 7.80049 5.47546 9.59961 5.47546 9.59961C5.46948 9.61647 5.08748 10.6926 4.94714 10.8691C4.80602 11.0455 4.72088 11.1514 4.52331 11.1514C4.32834 11.1513 4.51837 10.3613 4.52331 10.3408C4.52331 10.3408 4.80798 9.63912 4.94714 9.17578C5.10566 8.64795 5.16524 8.34206 5.26452 7.7998C5.3806 7.16558 5.47318 6.16712 5.47546 6.14258C5.47546 6.14258 5.54675 5.08362 5.54675 4.90723C5.54673 4.73089 5.50412 4.42758 5.75769 4.34277C6.01164 4.25812 7.15702 4.26071 7.69812 4.27246H9.07409V3.50977C9.03511 3.50618 8.99954 3.50296 8.96863 3.49609C8.65111 3.42553 7.98036 3.28432 7.41589 2.68457C6.85162 2.085 6.63976 1.76731 6.56921 1.55566C6.51283 1.38645 6.4989 1.26179 6.4989 1.23828L6.95788 1.09766C7.01699 1.4036 7.39084 2.03572 8.12195 2.50879C8.43348 2.71036 8.72642 2.8812 9.07409 2.93164V1.94434C9.07409 1.87395 8.98892 1.75288 8.96863 1.73242C8.924 1.6878 8.75683 1.55579 8.72156 1.52051L8.22741 1.13281L7.83972 0.744141L7.59265 0.426758L7.41589 0.321289L7.55749 0.109375L8.08679 0.744141Z" fill="#CBCBCB"/>
<path d="M6.4876 4.60596C6.35239 4.18653 6.21726 4.04671 6.08205 3.76709C6.05565 3.71249 6.10053 3.66114 6.14963 3.62728C6.20453 3.58942 6.25957 3.59676 6.3186 3.62728C6.38619 3.66223 6.68143 4.16796 6.7917 4.53606C6.91887 4.96056 7.06204 5.68125 7.06204 5.75941C7.06204 5.93418 6.72406 6.07399 6.69032 5.65455C6.65657 5.23511 6.62282 5.02539 6.4876 4.60596Z" fill="black" stroke="#CBCBCB" stroke-width="0.05"/>
<path d="M7.13558 4.60596C7.01968 4.18653 6.90386 4.04671 6.78796 3.76709C6.76533 3.71249 6.8038 3.66114 6.84589 3.62728C6.89295 3.58942 6.94013 3.59676 6.99072 3.62728C7.04865 3.66223 7.30172 4.16796 7.39623 4.53606C7.50523 4.96056 7.62796 5.68125 7.62796 5.75941C7.62796 5.93418 7.33826 6.07399 7.30933 5.65455C7.2804 5.23511 7.25148 5.02539 7.13558 4.60596Z" fill="black" stroke="#CBCBCB" stroke-width="0.05"/>
<path d="M5.65079 12.6968L4.41602 12.2734L4.48657 13.2965C4.48657 13.2965 4.69825 13.5317 4.94521 13.6141C5.19216 13.6964 5.43912 13.7552 5.68607 13.7905C6.16912 13.8595 6.95613 13.861 7.62644 13.861C8.29675 13.861 9.1756 13.7911 10.1666 13.7199C11.4916 13.6247 13.6239 13.3992 13.6239 13.3992V12.6262L12.7772 12.8026C12.7772 12.8026 11.4853 13.0063 10.5193 13.0849C9.35212 13.1798 8.68253 13.231 7.5206 13.0849C6.78066 12.9918 5.65079 12.6968 5.65079 12.6968Z" fill="#CBCBCB"/>
</svg>
