<svg width="16" height="12" viewBox="0 0 16 12" fill="none" xmlns="http://www.w3.org/2000/svg">
<path fill-rule="evenodd" clip-rule="evenodd" d="M0 1.76694V9.70891C0 10.5335 0.668276 11.2018 1.49206 11.2018H4.31059V6.26078C4.31059 5.86485 4.46778 5.4849 4.7477 5.20498C5.02762 4.92507 5.40757 4.76787 5.80349 4.76787H9.25162C9.64754 4.76787 10.0275 4.92507 10.3074 5.20498C10.5873 5.4849 10.7445 5.86485 10.7445 6.26078V11.2018H13.5631C14.3868 11.2018 15.0551 10.5335 15.0551 9.70891V1.76694C14.6844 1.89891 14.2851 1.9712 13.869 1.9712C12.4795 1.9712 11.2758 1.16759 10.6983 0C10.1208 1.16759 8.91707 1.9712 7.52756 1.9712C6.13805 1.9712 4.93431 1.16759 4.35682 0C3.77933 1.16759 2.57559 1.9712 1.18608 1.9712C0.769988 1.9712 0.370704 1.89891 0 1.76694ZM5.57149 11.2018V6.26078C5.57149 6.19857 5.59586 6.13973 5.63957 6.09686C5.68328 6.05315 5.74213 6.02877 5.80349 6.02877H9.25162C9.31299 6.02877 9.37183 6.05315 9.41554 6.09686C9.45925 6.13973 9.48363 6.19857 9.48363 6.26078V11.2018H5.57149Z" fill="black"/>
</svg>
