<svg width="60" height="60" viewBox="0 0 60 60" fill="none" xmlns="http://www.w3.org/2000/svg">
<path fill-rule="evenodd" clip-rule="evenodd" d="M40.8405 0.277026C38.2656 1.12945 36.4915 3.35528 36.4875 5.73821C36.4842 7.70765 37.7788 9.72037 39.7326 10.783C41.238 11.6018 43.5306 11.6968 45.1529 11.0074C45.8142 10.7264 46.676 10.2054 47.0683 9.84958C48.8336 8.24811 49.3834 5.43916 48.339 3.35774C47.0477 0.784051 43.5945 -0.634676 40.8405 0.277026ZM36.8177 12.5619C34.385 13.3147 32.1715 14.989 30.5357 17.3138C29.1859 19.2322 22.1216 32.2216 22.1216 32.7851C22.1216 33.0292 22.2676 33.4913 22.4462 33.8116C22.7598 34.3745 22.7094 34.5133 20.9576 37.9035C19.9605 39.8338 19.0436 41.4127 18.9202 41.4127C18.7972 41.4125 16.8067 40.5734 14.4973 39.5481C10.7302 37.8756 10.1989 37.6941 9.33218 37.7825C8.65506 37.8518 8.17837 38.0565 7.73771 38.4678C7.3713 38.8095 5.63119 41.9044 3.56556 45.8875C-0.430463 53.5936 -0.535877 53.9355 0.684012 55.2252C1.04821 55.61 1.63937 56.0377 1.99782 56.1755C2.61086 56.4112 2.68998 56.3833 3.33506 55.7013C5.23296 53.6951 8.69528 54.0725 9.9892 56.4266C10.3751 57.1282 10.4418 57.5259 10.3505 58.5798C10.2394 59.8662 10.2416 59.8726 10.821 59.8715C12.1963 59.8689 12.505 59.4509 15.7435 53.2066C25.3616 34.6618 24.9958 35.3278 25.8442 34.8163C26.3837 34.491 26.949 33.8088 27.6016 32.6959C28.532 31.1087 30.6606 27.5003 32.2358 24.8398C32.6568 24.1289 33.0283 23.5752 33.0617 23.6092C33.0948 23.6432 32.8871 25.2402 32.6 27.158C32.3127 29.0757 32.0774 31.014 32.0769 31.4652C32.0758 32.381 32.6427 33.6822 33.4935 34.7174L34.057 35.4031L32.7591 38.1517C29.2798 45.5202 27.8524 47.8838 23.6084 53.304C21.9167 55.4646 21.5899 56.0098 21.5072 56.8081C21.3792 58.0455 21.876 58.9274 23.0013 59.4603C25.0842 60.4467 25.6248 60.0943 29.652 55.1241C31.5121 52.8286 33.4042 50.5137 33.8568 49.9802C34.3096 49.4466 35.6391 47.5776 36.8115 45.8268C37.9839 44.076 38.9739 42.6436 39.0117 42.6436C39.358 42.6436 45.8424 53.0614 48.1675 57.3532C49.1529 59.1725 49.7801 59.7559 50.9739 59.9638C51.9874 60.1402 53.4707 59.505 54.0049 58.6659C54.6829 57.6006 54.4997 56.6692 53.0891 54.011C52.3753 52.6661 49.893 47.723 47.5728 43.0265L43.3545 34.4871L44.0659 29.6584C44.4572 27.0027 44.8389 24.7726 44.914 24.7028C44.9894 24.6331 45.6822 25.3672 46.4539 26.3343C47.8305 28.0592 47.9386 28.1404 52.1717 30.6349C54.5445 32.0334 56.7456 33.2373 57.0625 33.3106C58.4064 33.6207 60 32.389 60 31.0402C60 29.9784 59.5465 29.4281 57.6166 28.1486C51.6475 24.1907 52.0535 24.5554 49.1631 20.5576C47.7098 18.5474 46.1971 16.4091 45.8016 15.8059C44.8343 14.3304 43.6953 13.3971 42.2321 12.8815C40.7114 12.3455 38.0285 12.1872 36.8177 12.5619ZM5.1481 56.6913C3.34014 58.1031 5.20114 60.7845 7.29219 59.7809C8.09064 59.3977 8.41992 58.8928 8.41992 58.0516C8.41992 57.2148 7.61152 56.3993 6.63981 56.2559C6.00114 56.1616 5.7218 56.2432 5.1481 56.6913Z" fill="black"/>
</svg>
