<svg width="40" height="40" viewBox="0 0 40 40" fill="none" xmlns="http://www.w3.org/2000/svg">
<path d="M9.16732 1.67188C11.2432 1.67188 12.8354 1.73296 13.9937 1.80538C15.8345 1.92048 17.2521 3.33805 17.3672 5.17884C17.4396 6.33709 17.5007 7.92928 17.5007 10.0052C17.5007 12.0811 17.4396 13.6733 17.3672 14.8316C17.2521 16.6724 15.8345 18.09 13.9937 18.205C12.8354 18.2775 11.2432 18.3385 9.16732 18.3385C7.09138 18.3385 5.4992 18.2775 4.34094 18.205C2.50015 18.09 1.08258 16.6724 0.967484 14.8315C0.895059 13.6733 0.833984 12.0811 0.833984 10.0052C0.833984 7.92927 0.895068 6.33709 0.967484 5.17883C1.08258 3.33804 2.50015 1.92047 4.34095 1.80538C5.4992 1.73295 7.09138 1.67188 9.16732 1.67188Z" fill="#B91332"/>
<path d="M9.16732 21.6719C11.2432 21.6719 12.8354 21.733 13.9937 21.8054C15.8345 21.9205 17.2521 23.338 17.3672 25.1789C17.4396 26.3371 17.5007 27.9293 17.5007 30.0052C17.5007 32.0811 17.4396 33.6733 17.3672 34.8315C17.2521 36.6724 15.8345 38.09 13.9937 38.205C12.8354 38.2775 11.2432 38.3385 9.16732 38.3385C7.09138 38.3385 5.4992 38.2775 4.34094 38.205C2.50015 38.09 1.08258 36.6724 0.967484 34.8315C0.895059 33.6733 0.833984 32.0811 0.833984 30.0052C0.833984 27.9293 0.895068 26.3371 0.967484 25.1789C1.08258 23.338 2.50015 21.9205 4.34095 21.8054C5.4992 21.733 7.09138 21.6719 9.16732 21.6719Z" fill="#B91332"/>
<path d="M30.0007 2.5C25.7293 2.5 23.6352 2.57556 22.6343 2.6372C21.7875 2.68936 20.9877 3.2668 20.8864 4.2532C20.8552 4.55625 20.834 4.9381 20.834 5.41667C20.834 5.89523 20.8552 6.27709 20.8864 6.58013C20.9877 7.56653 21.7875 8.14398 22.6343 8.19614C23.6352 8.25778 25.7293 8.33333 30.0007 8.33333C34.272 8.33333 36.3662 8.25778 37.367 8.19614C38.2138 8.14398 39.0137 7.56653 39.1149 6.58013C39.1461 6.27709 39.1673 5.89523 39.1673 5.41667C39.1673 4.9381 39.1461 4.55625 39.1149 4.2532C39.0137 3.2668 38.2138 2.68936 37.367 2.6372C36.3662 2.57556 34.272 2.5 30.0007 2.5Z" fill="#B91332"/>
<path d="M27.5007 11.6719C24.8744 11.6719 23.414 11.73 22.6111 11.7868C21.6867 11.8521 20.9308 12.5261 20.8655 13.512C20.8467 13.7956 20.834 14.1495 20.834 14.5885C20.834 15.0275 20.8467 15.3815 20.8655 15.6651C20.9308 16.651 21.6867 17.325 22.6111 17.3903C23.414 17.447 24.8744 17.5052 27.5007 17.5052C30.1269 17.5052 31.5873 17.447 32.3902 17.3903C33.3147 17.325 34.0705 16.651 34.1358 15.6651C34.1546 15.3815 34.1673 15.0275 34.1673 14.5885C34.1673 14.1495 34.1546 13.7956 34.1358 13.512C34.0705 12.5261 33.3147 11.8521 32.3902 11.7868C31.5873 11.73 30.1269 11.6719 27.5007 11.6719Z" fill="#B91332"/>
<path d="M27.5007 31.6719C24.8744 31.6719 23.414 31.73 22.6111 31.7868C21.6867 31.8521 20.9308 32.5261 20.8655 33.512C20.8467 33.7956 20.834 34.1495 20.834 34.5885C20.834 35.0275 20.8467 35.3815 20.8655 35.6651C20.9308 36.651 21.6867 37.325 22.6111 37.3903C23.414 37.447 24.8744 37.5052 27.5007 37.5052C30.1269 37.5052 31.5873 37.447 32.3902 37.3903C33.3147 37.325 34.0705 36.651 34.1358 35.6651C34.1546 35.3815 34.1673 35.0275 34.1673 34.5885C34.1673 34.1495 34.1546 33.7956 34.1358 33.512C34.0705 32.5261 33.3147 31.8521 32.3902 31.7868C31.5873 31.73 30.1269 31.6719 27.5007 31.6719Z" fill="#B91332"/>
<path d="M30.0007 22.5C25.7293 22.5 23.6352 22.5756 22.6343 22.6372C21.7875 22.6893 20.9877 23.2668 20.8864 24.2532C20.8552 24.5562 20.834 24.9381 20.834 25.4167C20.834 25.8953 20.8552 26.2771 20.8864 26.5802C20.9877 27.5665 21.7875 28.144 22.6343 28.1962C23.6352 28.2578 25.7293 28.3333 30.0007 28.3333C34.272 28.3333 36.3662 28.2578 37.367 28.1962C38.2138 28.144 39.0137 27.5665 39.1149 26.5802C39.1461 26.2771 39.1673 25.8953 39.1673 25.4167C39.1673 24.9381 39.1461 24.5562 39.1149 24.2532C39.0137 23.2668 38.2138 22.6893 37.367 22.6372C36.3662 22.5756 34.272 22.5 30.0007 22.5Z" fill="#B91332"/>
</svg>
